<mxfile host="app.diagrams.net" agent="Mozilla/5.0 (Windows NT 10.0; Win64; x64) AppleWebKit/537.36 (KHTML, like Gecko) Chrome/135.0.0.0 Safari/537.36 Edg/135.0.0.0" version="26.2.15">
  <diagram name="第 1 页" id="prHB6c7JmaogLN6D8wv1">
    <mxGraphModel dx="1205" dy="666" grid="1" gridSize="10" guides="1" tooltips="1" connect="1" arrows="1" fold="1" page="1" pageScale="1" pageWidth="3840" pageHeight="2160" math="0" shadow="0">
      <root>
        <mxCell id="0" />
        <mxCell id="1" parent="0" />
        <mxCell id="scvsNfRKqxQlTu6MdNj0-13" value="" style="edgeStyle=orthogonalEdgeStyle;rounded=0;orthogonalLoop=1;jettySize=auto;html=1;" edge="1" parent="1" source="scvsNfRKqxQlTu6MdNj0-7" target="scvsNfRKqxQlTu6MdNj0-9">
          <mxGeometry relative="1" as="geometry" />
        </mxCell>
        <mxCell id="scvsNfRKqxQlTu6MdNj0-7" value="借阅证" style="strokeWidth=2;html=1;shape=mxgraph.flowchart.document2;whiteSpace=wrap;size=0.25;" vertex="1" parent="1">
          <mxGeometry x="60" y="60" width="100" height="60" as="geometry" />
        </mxCell>
        <mxCell id="scvsNfRKqxQlTu6MdNj0-12" value="" style="edgeStyle=orthogonalEdgeStyle;rounded=0;orthogonalLoop=1;jettySize=auto;html=1;" edge="1" parent="1" source="scvsNfRKqxQlTu6MdNj0-8" target="scvsNfRKqxQlTu6MdNj0-7">
          <mxGeometry relative="1" as="geometry" />
        </mxCell>
        <mxCell id="scvsNfRKqxQlTu6MdNj0-8" value="学生" style="strokeWidth=2;html=1;shape=mxgraph.flowchart.terminator;whiteSpace=wrap;" vertex="1" parent="1">
          <mxGeometry x="220" y="60" width="100" height="60" as="geometry" />
        </mxCell>
        <mxCell id="scvsNfRKqxQlTu6MdNj0-15" value="" style="edgeStyle=orthogonalEdgeStyle;rounded=0;orthogonalLoop=1;jettySize=auto;html=1;" edge="1" parent="1" source="scvsNfRKqxQlTu6MdNj0-9" target="scvsNfRKqxQlTu6MdNj0-14">
          <mxGeometry relative="1" as="geometry" />
        </mxCell>
        <mxCell id="scvsNfRKqxQlTu6MdNj0-9" value="计算机终端" style="strokeWidth=2;html=1;shape=mxgraph.flowchart.terminator;whiteSpace=wrap;" vertex="1" parent="1">
          <mxGeometry x="60" y="150" width="100" height="60" as="geometry" />
        </mxCell>
        <mxCell id="scvsNfRKqxQlTu6MdNj0-17" value="" style="edgeStyle=orthogonalEdgeStyle;rounded=0;orthogonalLoop=1;jettySize=auto;html=1;" edge="1" parent="1" source="scvsNfRKqxQlTu6MdNj0-14" target="scvsNfRKqxQlTu6MdNj0-16">
          <mxGeometry relative="1" as="geometry" />
        </mxCell>
        <mxCell id="scvsNfRKqxQlTu6MdNj0-19" value="" style="edgeStyle=orthogonalEdgeStyle;rounded=0;orthogonalLoop=1;jettySize=auto;html=1;" edge="1" parent="1" source="scvsNfRKqxQlTu6MdNj0-14" target="scvsNfRKqxQlTu6MdNj0-18">
          <mxGeometry relative="1" as="geometry" />
        </mxCell>
        <mxCell id="scvsNfRKqxQlTu6MdNj0-14" value="审查并进入&lt;div&gt;借阅证系统&lt;/div&gt;" style="rounded=0;whiteSpace=wrap;html=1;" vertex="1" parent="1">
          <mxGeometry x="50" y="240" width="120" height="60" as="geometry" />
        </mxCell>
        <mxCell id="scvsNfRKqxQlTu6MdNj0-26" style="edgeStyle=orthogonalEdgeStyle;rounded=0;orthogonalLoop=1;jettySize=auto;html=1;exitX=1;exitY=0.5;exitDx=0;exitDy=0;entryX=0;entryY=0.5;entryDx=0;entryDy=0;" edge="1" parent="1" source="scvsNfRKqxQlTu6MdNj0-16" target="scvsNfRKqxQlTu6MdNj0-20">
          <mxGeometry relative="1" as="geometry" />
        </mxCell>
        <mxCell id="scvsNfRKqxQlTu6MdNj0-28" style="edgeStyle=orthogonalEdgeStyle;rounded=0;orthogonalLoop=1;jettySize=auto;html=1;exitX=1;exitY=0.5;exitDx=0;exitDy=0;entryX=0;entryY=0.5;entryDx=0;entryDy=0;" edge="1" parent="1" source="scvsNfRKqxQlTu6MdNj0-16" target="scvsNfRKqxQlTu6MdNj0-21">
          <mxGeometry relative="1" as="geometry" />
        </mxCell>
        <mxCell id="scvsNfRKqxQlTu6MdNj0-29" style="edgeStyle=orthogonalEdgeStyle;rounded=0;orthogonalLoop=1;jettySize=auto;html=1;exitX=1;exitY=0.5;exitDx=0;exitDy=0;" edge="1" parent="1" source="scvsNfRKqxQlTu6MdNj0-16" target="scvsNfRKqxQlTu6MdNj0-22">
          <mxGeometry relative="1" as="geometry" />
        </mxCell>
        <mxCell id="scvsNfRKqxQlTu6MdNj0-30" style="edgeStyle=orthogonalEdgeStyle;rounded=0;orthogonalLoop=1;jettySize=auto;html=1;exitX=1;exitY=0.5;exitDx=0;exitDy=0;entryX=0;entryY=0.5;entryDx=0;entryDy=0;" edge="1" parent="1" source="scvsNfRKqxQlTu6MdNj0-16" target="scvsNfRKqxQlTu6MdNj0-23">
          <mxGeometry relative="1" as="geometry" />
        </mxCell>
        <mxCell id="scvsNfRKqxQlTu6MdNj0-16" value="选择功能" style="rounded=0;whiteSpace=wrap;html=1;" vertex="1" parent="1">
          <mxGeometry x="220" y="240" width="120" height="60" as="geometry" />
        </mxCell>
        <mxCell id="scvsNfRKqxQlTu6MdNj0-18" value="学生借阅证表" style="strokeWidth=2;html=1;shape=mxgraph.flowchart.stored_data;whiteSpace=wrap;" vertex="1" parent="1">
          <mxGeometry x="60" y="330" width="100" height="60" as="geometry" />
        </mxCell>
        <mxCell id="scvsNfRKqxQlTu6MdNj0-33" value="" style="edgeStyle=orthogonalEdgeStyle;rounded=0;orthogonalLoop=1;jettySize=auto;html=1;" edge="1" parent="1" source="scvsNfRKqxQlTu6MdNj0-101" target="scvsNfRKqxQlTu6MdNj0-31">
          <mxGeometry relative="1" as="geometry" />
        </mxCell>
        <mxCell id="scvsNfRKqxQlTu6MdNj0-20" value="缴费" style="rounded=0;whiteSpace=wrap;html=1;" vertex="1" parent="1">
          <mxGeometry x="410" y="170" width="100" height="40" as="geometry" />
        </mxCell>
        <mxCell id="scvsNfRKqxQlTu6MdNj0-91" style="edgeStyle=orthogonalEdgeStyle;rounded=0;orthogonalLoop=1;jettySize=auto;html=1;exitX=1;exitY=0.5;exitDx=0;exitDy=0;entryX=0;entryY=0.5;entryDx=0;entryDy=0;" edge="1" parent="1" source="scvsNfRKqxQlTu6MdNj0-21" target="scvsNfRKqxQlTu6MdNj0-88">
          <mxGeometry relative="1" as="geometry" />
        </mxCell>
        <mxCell id="scvsNfRKqxQlTu6MdNj0-92" style="edgeStyle=orthogonalEdgeStyle;rounded=0;orthogonalLoop=1;jettySize=auto;html=1;exitX=1;exitY=0.5;exitDx=0;exitDy=0;entryX=0;entryY=0.5;entryDx=0;entryDy=0;" edge="1" parent="1" source="scvsNfRKqxQlTu6MdNj0-21" target="scvsNfRKqxQlTu6MdNj0-89">
          <mxGeometry relative="1" as="geometry" />
        </mxCell>
        <mxCell id="scvsNfRKqxQlTu6MdNj0-21" value="借还图书" style="rounded=0;whiteSpace=wrap;html=1;" vertex="1" parent="1">
          <mxGeometry x="410" y="230" width="100" height="40" as="geometry" />
        </mxCell>
        <mxCell id="scvsNfRKqxQlTu6MdNj0-97" style="edgeStyle=orthogonalEdgeStyle;rounded=0;orthogonalLoop=1;jettySize=auto;html=1;exitX=1;exitY=0.5;exitDx=0;exitDy=0;entryX=0;entryY=0.5;entryDx=0;entryDy=0;" edge="1" parent="1" source="scvsNfRKqxQlTu6MdNj0-22" target="scvsNfRKqxQlTu6MdNj0-95">
          <mxGeometry relative="1" as="geometry" />
        </mxCell>
        <mxCell id="scvsNfRKqxQlTu6MdNj0-98" style="edgeStyle=orthogonalEdgeStyle;rounded=0;orthogonalLoop=1;jettySize=auto;html=1;exitX=1;exitY=0.5;exitDx=0;exitDy=0;entryX=0;entryY=0.5;entryDx=0;entryDy=0;" edge="1" parent="1" source="scvsNfRKqxQlTu6MdNj0-22" target="scvsNfRKqxQlTu6MdNj0-96">
          <mxGeometry relative="1" as="geometry" />
        </mxCell>
        <mxCell id="scvsNfRKqxQlTu6MdNj0-22" value="查询" style="rounded=0;whiteSpace=wrap;html=1;" vertex="1" parent="1">
          <mxGeometry x="410" y="290" width="100" height="40" as="geometry" />
        </mxCell>
        <mxCell id="scvsNfRKqxQlTu6MdNj0-74" style="edgeStyle=orthogonalEdgeStyle;rounded=0;orthogonalLoop=1;jettySize=auto;html=1;exitX=1;exitY=0.5;exitDx=0;exitDy=0;entryX=0;entryY=0.5;entryDx=0;entryDy=0;" edge="1" parent="1" source="scvsNfRKqxQlTu6MdNj0-23" target="scvsNfRKqxQlTu6MdNj0-69">
          <mxGeometry relative="1" as="geometry" />
        </mxCell>
        <mxCell id="scvsNfRKqxQlTu6MdNj0-75" style="edgeStyle=orthogonalEdgeStyle;rounded=0;orthogonalLoop=1;jettySize=auto;html=1;exitX=1;exitY=0.5;exitDx=0;exitDy=0;entryX=0;entryY=0.5;entryDx=0;entryDy=0;" edge="1" parent="1" source="scvsNfRKqxQlTu6MdNj0-23" target="scvsNfRKqxQlTu6MdNj0-70">
          <mxGeometry relative="1" as="geometry" />
        </mxCell>
        <mxCell id="scvsNfRKqxQlTu6MdNj0-76" style="edgeStyle=orthogonalEdgeStyle;rounded=0;orthogonalLoop=1;jettySize=auto;html=1;exitX=1;exitY=0.5;exitDx=0;exitDy=0;entryX=0;entryY=0.5;entryDx=0;entryDy=0;" edge="1" parent="1" source="scvsNfRKqxQlTu6MdNj0-23" target="scvsNfRKqxQlTu6MdNj0-71">
          <mxGeometry relative="1" as="geometry" />
        </mxCell>
        <mxCell id="scvsNfRKqxQlTu6MdNj0-77" style="edgeStyle=orthogonalEdgeStyle;rounded=0;orthogonalLoop=1;jettySize=auto;html=1;exitX=1;exitY=0.5;exitDx=0;exitDy=0;entryX=0;entryY=0.5;entryDx=0;entryDy=0;" edge="1" parent="1" source="scvsNfRKqxQlTu6MdNj0-23" target="scvsNfRKqxQlTu6MdNj0-72">
          <mxGeometry relative="1" as="geometry" />
        </mxCell>
        <mxCell id="scvsNfRKqxQlTu6MdNj0-78" style="edgeStyle=orthogonalEdgeStyle;rounded=0;orthogonalLoop=1;jettySize=auto;html=1;exitX=1;exitY=0.5;exitDx=0;exitDy=0;entryX=0;entryY=0.5;entryDx=0;entryDy=0;" edge="1" parent="1" source="scvsNfRKqxQlTu6MdNj0-23" target="scvsNfRKqxQlTu6MdNj0-73">
          <mxGeometry relative="1" as="geometry" />
        </mxCell>
        <mxCell id="scvsNfRKqxQlTu6MdNj0-23" value="借阅证管理" style="rounded=0;whiteSpace=wrap;html=1;" vertex="1" parent="1">
          <mxGeometry x="410" y="480" width="100" height="40" as="geometry" />
        </mxCell>
        <mxCell id="scvsNfRKqxQlTu6MdNj0-31" value="学生缴费表" style="strokeWidth=2;html=1;shape=mxgraph.flowchart.stored_data;whiteSpace=wrap;" vertex="1" parent="1">
          <mxGeometry x="800" y="170" width="80" height="40" as="geometry" />
        </mxCell>
        <mxCell id="scvsNfRKqxQlTu6MdNj0-37" style="edgeStyle=orthogonalEdgeStyle;rounded=0;orthogonalLoop=1;jettySize=auto;html=1;exitX=0.5;exitY=0;exitDx=0;exitDy=0;exitPerimeter=0;entryX=1;entryY=0.75;entryDx=0;entryDy=0;" edge="1" parent="1">
          <mxGeometry relative="1" as="geometry">
            <mxPoint x="840" y="290" as="sourcePoint" />
            <mxPoint x="510" y="200" as="targetPoint" />
            <Array as="points">
              <mxPoint x="840" y="220" />
              <mxPoint x="510" y="220" />
            </Array>
          </mxGeometry>
        </mxCell>
        <mxCell id="scvsNfRKqxQlTu6MdNj0-32" value="借阅图书表" style="strokeWidth=2;html=1;shape=mxgraph.flowchart.stored_data;whiteSpace=wrap;" vertex="1" parent="1">
          <mxGeometry x="800" y="290" width="80" height="40" as="geometry" />
        </mxCell>
        <mxCell id="scvsNfRKqxQlTu6MdNj0-47" value="" style="edgeStyle=orthogonalEdgeStyle;rounded=0;orthogonalLoop=1;jettySize=auto;html=1;" edge="1" parent="1" source="scvsNfRKqxQlTu6MdNj0-48" target="scvsNfRKqxQlTu6MdNj0-52">
          <mxGeometry relative="1" as="geometry" />
        </mxCell>
        <mxCell id="scvsNfRKqxQlTu6MdNj0-48" value="管理员身份认证" style="strokeWidth=2;html=1;shape=mxgraph.flowchart.document2;whiteSpace=wrap;size=0.25;" vertex="1" parent="1">
          <mxGeometry x="70" y="480" width="100" height="60" as="geometry" />
        </mxCell>
        <mxCell id="scvsNfRKqxQlTu6MdNj0-49" value="" style="edgeStyle=orthogonalEdgeStyle;rounded=0;orthogonalLoop=1;jettySize=auto;html=1;" edge="1" parent="1" source="scvsNfRKqxQlTu6MdNj0-50" target="scvsNfRKqxQlTu6MdNj0-48">
          <mxGeometry relative="1" as="geometry" />
        </mxCell>
        <mxCell id="scvsNfRKqxQlTu6MdNj0-50" value="管理员" style="strokeWidth=2;html=1;shape=mxgraph.flowchart.terminator;whiteSpace=wrap;" vertex="1" parent="1">
          <mxGeometry x="230" y="480" width="100" height="60" as="geometry" />
        </mxCell>
        <mxCell id="scvsNfRKqxQlTu6MdNj0-51" value="" style="edgeStyle=orthogonalEdgeStyle;rounded=0;orthogonalLoop=1;jettySize=auto;html=1;" edge="1" parent="1" source="scvsNfRKqxQlTu6MdNj0-52" target="scvsNfRKqxQlTu6MdNj0-55">
          <mxGeometry relative="1" as="geometry" />
        </mxCell>
        <mxCell id="scvsNfRKqxQlTu6MdNj0-52" value="计算机终端" style="strokeWidth=2;html=1;shape=mxgraph.flowchart.terminator;whiteSpace=wrap;" vertex="1" parent="1">
          <mxGeometry x="70" y="570" width="100" height="60" as="geometry" />
        </mxCell>
        <mxCell id="scvsNfRKqxQlTu6MdNj0-53" value="" style="edgeStyle=orthogonalEdgeStyle;rounded=0;orthogonalLoop=1;jettySize=auto;html=1;" edge="1" parent="1" source="scvsNfRKqxQlTu6MdNj0-55" target="scvsNfRKqxQlTu6MdNj0-56">
          <mxGeometry relative="1" as="geometry" />
        </mxCell>
        <mxCell id="scvsNfRKqxQlTu6MdNj0-55" value="认证并进入&lt;div&gt;借管理系统&lt;/div&gt;" style="rounded=0;whiteSpace=wrap;html=1;" vertex="1" parent="1">
          <mxGeometry x="60" y="660" width="120" height="60" as="geometry" />
        </mxCell>
        <mxCell id="scvsNfRKqxQlTu6MdNj0-59" value="" style="edgeStyle=orthogonalEdgeStyle;rounded=0;orthogonalLoop=1;jettySize=auto;html=1;" edge="1" parent="1" source="scvsNfRKqxQlTu6MdNj0-56" target="scvsNfRKqxQlTu6MdNj0-58">
          <mxGeometry relative="1" as="geometry" />
        </mxCell>
        <mxCell id="scvsNfRKqxQlTu6MdNj0-56" value="选择功能" style="rounded=0;whiteSpace=wrap;html=1;" vertex="1" parent="1">
          <mxGeometry x="230" y="660" width="120" height="60" as="geometry" />
        </mxCell>
        <mxCell id="scvsNfRKqxQlTu6MdNj0-62" style="edgeStyle=orthogonalEdgeStyle;rounded=0;orthogonalLoop=1;jettySize=auto;html=1;exitX=1;exitY=0.5;exitDx=0;exitDy=0;" edge="1" parent="1" source="scvsNfRKqxQlTu6MdNj0-58" target="scvsNfRKqxQlTu6MdNj0-61">
          <mxGeometry relative="1" as="geometry" />
        </mxCell>
        <mxCell id="scvsNfRKqxQlTu6MdNj0-63" style="edgeStyle=orthogonalEdgeStyle;rounded=0;orthogonalLoop=1;jettySize=auto;html=1;exitX=1;exitY=0.5;exitDx=0;exitDy=0;entryX=0;entryY=0.5;entryDx=0;entryDy=0;" edge="1" parent="1" source="scvsNfRKqxQlTu6MdNj0-58" target="scvsNfRKqxQlTu6MdNj0-60">
          <mxGeometry relative="1" as="geometry" />
        </mxCell>
        <mxCell id="scvsNfRKqxQlTu6MdNj0-58" value="书目管理" style="rounded=0;whiteSpace=wrap;html=1;" vertex="1" parent="1">
          <mxGeometry x="480" y="780" width="100" height="40" as="geometry" />
        </mxCell>
        <mxCell id="scvsNfRKqxQlTu6MdNj0-60" value="新增书目" style="rounded=0;whiteSpace=wrap;html=1;" vertex="1" parent="1">
          <mxGeometry x="620" y="740" width="100" height="40" as="geometry" />
        </mxCell>
        <mxCell id="scvsNfRKqxQlTu6MdNj0-61" value="删除书目" style="rounded=0;whiteSpace=wrap;html=1;" vertex="1" parent="1">
          <mxGeometry x="620" y="810" width="100" height="40" as="geometry" />
        </mxCell>
        <mxCell id="scvsNfRKqxQlTu6MdNj0-64" value="图书信息表" style="strokeWidth=2;html=1;shape=mxgraph.flowchart.stored_data;whiteSpace=wrap;" vertex="1" parent="1">
          <mxGeometry x="780" y="780" width="80" height="40" as="geometry" />
        </mxCell>
        <mxCell id="scvsNfRKqxQlTu6MdNj0-65" style="edgeStyle=orthogonalEdgeStyle;rounded=0;orthogonalLoop=1;jettySize=auto;html=1;exitX=1;exitY=0.5;exitDx=0;exitDy=0;entryX=0;entryY=0.5;entryDx=0;entryDy=0;entryPerimeter=0;" edge="1" parent="1" source="scvsNfRKqxQlTu6MdNj0-60" target="scvsNfRKqxQlTu6MdNj0-64">
          <mxGeometry relative="1" as="geometry" />
        </mxCell>
        <mxCell id="scvsNfRKqxQlTu6MdNj0-66" style="edgeStyle=orthogonalEdgeStyle;rounded=0;orthogonalLoop=1;jettySize=auto;html=1;exitX=1;exitY=0.5;exitDx=0;exitDy=0;entryX=0;entryY=0.5;entryDx=0;entryDy=0;entryPerimeter=0;" edge="1" parent="1" source="scvsNfRKqxQlTu6MdNj0-61" target="scvsNfRKqxQlTu6MdNj0-64">
          <mxGeometry relative="1" as="geometry" />
        </mxCell>
        <mxCell id="scvsNfRKqxQlTu6MdNj0-69" value="注册" style="rounded=0;whiteSpace=wrap;html=1;" vertex="1" parent="1">
          <mxGeometry x="620" y="480" width="100" height="40" as="geometry" />
        </mxCell>
        <mxCell id="scvsNfRKqxQlTu6MdNj0-70" value="补发" style="rounded=0;whiteSpace=wrap;html=1;" vertex="1" parent="1">
          <mxGeometry x="620" y="530" width="100" height="40" as="geometry" />
        </mxCell>
        <mxCell id="scvsNfRKqxQlTu6MdNj0-82" style="edgeStyle=orthogonalEdgeStyle;rounded=0;orthogonalLoop=1;jettySize=auto;html=1;exitX=1;exitY=0.5;exitDx=0;exitDy=0;" edge="1" parent="1" source="scvsNfRKqxQlTu6MdNj0-71">
          <mxGeometry relative="1" as="geometry">
            <mxPoint x="790" y="590" as="targetPoint" />
          </mxGeometry>
        </mxCell>
        <mxCell id="scvsNfRKqxQlTu6MdNj0-71" value="暂停" style="rounded=0;whiteSpace=wrap;html=1;" vertex="1" parent="1">
          <mxGeometry x="620" y="580" width="100" height="40" as="geometry" />
        </mxCell>
        <mxCell id="scvsNfRKqxQlTu6MdNj0-72" value="挂失" style="rounded=0;whiteSpace=wrap;html=1;" vertex="1" parent="1">
          <mxGeometry x="620" y="630" width="100" height="40" as="geometry" />
        </mxCell>
        <mxCell id="scvsNfRKqxQlTu6MdNj0-73" value="注销" style="rounded=0;whiteSpace=wrap;html=1;" vertex="1" parent="1">
          <mxGeometry x="620" y="680" width="100" height="40" as="geometry" />
        </mxCell>
        <mxCell id="scvsNfRKqxQlTu6MdNj0-79" value="学生借阅证表" style="strokeWidth=2;html=1;shape=mxgraph.flowchart.stored_data;whiteSpace=wrap;" vertex="1" parent="1">
          <mxGeometry x="790" y="560" width="100" height="60" as="geometry" />
        </mxCell>
        <mxCell id="scvsNfRKqxQlTu6MdNj0-80" style="edgeStyle=orthogonalEdgeStyle;rounded=0;orthogonalLoop=1;jettySize=auto;html=1;exitX=1;exitY=0.5;exitDx=0;exitDy=0;entryX=0;entryY=0.5;entryDx=0;entryDy=0;entryPerimeter=0;" edge="1" parent="1" source="scvsNfRKqxQlTu6MdNj0-69" target="scvsNfRKqxQlTu6MdNj0-79">
          <mxGeometry relative="1" as="geometry" />
        </mxCell>
        <mxCell id="scvsNfRKqxQlTu6MdNj0-81" style="edgeStyle=orthogonalEdgeStyle;rounded=0;orthogonalLoop=1;jettySize=auto;html=1;exitX=1;exitY=0.5;exitDx=0;exitDy=0;entryX=0;entryY=0.5;entryDx=0;entryDy=0;entryPerimeter=0;" edge="1" parent="1" source="scvsNfRKqxQlTu6MdNj0-70" target="scvsNfRKqxQlTu6MdNj0-79">
          <mxGeometry relative="1" as="geometry" />
        </mxCell>
        <mxCell id="scvsNfRKqxQlTu6MdNj0-83" style="edgeStyle=orthogonalEdgeStyle;rounded=0;orthogonalLoop=1;jettySize=auto;html=1;exitX=1;exitY=0.5;exitDx=0;exitDy=0;entryX=0;entryY=0.5;entryDx=0;entryDy=0;entryPerimeter=0;" edge="1" parent="1" source="scvsNfRKqxQlTu6MdNj0-72" target="scvsNfRKqxQlTu6MdNj0-79">
          <mxGeometry relative="1" as="geometry" />
        </mxCell>
        <mxCell id="scvsNfRKqxQlTu6MdNj0-84" style="edgeStyle=orthogonalEdgeStyle;rounded=0;orthogonalLoop=1;jettySize=auto;html=1;exitX=1;exitY=0.5;exitDx=0;exitDy=0;entryX=0;entryY=0.5;entryDx=0;entryDy=0;entryPerimeter=0;" edge="1" parent="1" source="scvsNfRKqxQlTu6MdNj0-73" target="scvsNfRKqxQlTu6MdNj0-79">
          <mxGeometry relative="1" as="geometry" />
        </mxCell>
        <mxCell id="scvsNfRKqxQlTu6MdNj0-88" value="借书" style="rounded=0;whiteSpace=wrap;html=1;" vertex="1" parent="1">
          <mxGeometry x="620" y="230" width="100" height="40" as="geometry" />
        </mxCell>
        <mxCell id="scvsNfRKqxQlTu6MdNj0-89" value="还书" style="rounded=0;whiteSpace=wrap;html=1;" vertex="1" parent="1">
          <mxGeometry x="620" y="280" width="100" height="40" as="geometry" />
        </mxCell>
        <mxCell id="scvsNfRKqxQlTu6MdNj0-93" style="edgeStyle=orthogonalEdgeStyle;rounded=0;orthogonalLoop=1;jettySize=auto;html=1;exitX=1;exitY=0.5;exitDx=0;exitDy=0;entryX=0.1;entryY=0;entryDx=0;entryDy=0;entryPerimeter=0;" edge="1" parent="1" source="scvsNfRKqxQlTu6MdNj0-88" target="scvsNfRKqxQlTu6MdNj0-32">
          <mxGeometry relative="1" as="geometry" />
        </mxCell>
        <mxCell id="scvsNfRKqxQlTu6MdNj0-94" style="edgeStyle=orthogonalEdgeStyle;rounded=0;orthogonalLoop=1;jettySize=auto;html=1;exitX=1;exitY=0.5;exitDx=0;exitDy=0;entryX=0.1;entryY=0;entryDx=0;entryDy=0;entryPerimeter=0;" edge="1" parent="1" source="scvsNfRKqxQlTu6MdNj0-89" target="scvsNfRKqxQlTu6MdNj0-32">
          <mxGeometry relative="1" as="geometry" />
        </mxCell>
        <mxCell id="scvsNfRKqxQlTu6MdNj0-95" value="图书查询" style="rounded=0;whiteSpace=wrap;html=1;" vertex="1" parent="1">
          <mxGeometry x="620" y="330" width="100" height="40" as="geometry" />
        </mxCell>
        <mxCell id="scvsNfRKqxQlTu6MdNj0-96" value="借阅时间查询" style="rounded=0;whiteSpace=wrap;html=1;" vertex="1" parent="1">
          <mxGeometry x="620" y="380" width="100" height="40" as="geometry" />
        </mxCell>
        <mxCell id="scvsNfRKqxQlTu6MdNj0-99" style="edgeStyle=orthogonalEdgeStyle;rounded=0;orthogonalLoop=1;jettySize=auto;html=1;exitX=1;exitY=0.5;exitDx=0;exitDy=0;entryX=0;entryY=0.5;entryDx=0;entryDy=0;entryPerimeter=0;" edge="1" parent="1" source="scvsNfRKqxQlTu6MdNj0-95" target="scvsNfRKqxQlTu6MdNj0-32">
          <mxGeometry relative="1" as="geometry" />
        </mxCell>
        <mxCell id="scvsNfRKqxQlTu6MdNj0-100" style="edgeStyle=orthogonalEdgeStyle;rounded=0;orthogonalLoop=1;jettySize=auto;html=1;exitX=1;exitY=0.5;exitDx=0;exitDy=0;entryX=0;entryY=0.5;entryDx=0;entryDy=0;entryPerimeter=0;" edge="1" parent="1" source="scvsNfRKqxQlTu6MdNj0-96" target="scvsNfRKqxQlTu6MdNj0-32">
          <mxGeometry relative="1" as="geometry" />
        </mxCell>
        <mxCell id="scvsNfRKqxQlTu6MdNj0-102" value="" style="edgeStyle=orthogonalEdgeStyle;rounded=0;orthogonalLoop=1;jettySize=auto;html=1;" edge="1" parent="1" source="scvsNfRKqxQlTu6MdNj0-20" target="scvsNfRKqxQlTu6MdNj0-101">
          <mxGeometry relative="1" as="geometry">
            <mxPoint x="510" y="190" as="sourcePoint" />
            <mxPoint x="800" y="190" as="targetPoint" />
          </mxGeometry>
        </mxCell>
        <mxCell id="scvsNfRKqxQlTu6MdNj0-101" value="超期罚款" style="rounded=0;whiteSpace=wrap;html=1;" vertex="1" parent="1">
          <mxGeometry x="620" y="170" width="100" height="40" as="geometry" />
        </mxCell>
      </root>
    </mxGraphModel>
  </diagram>
</mxfile>
